<svg id="Capa_1" data-name="Capa 1" xmlns="http://www.w3.org/2000/svg" viewBox="0 0 500 500"><defs><style>.cls-1,.cls-9{fill:#e6e6e6;}.cls-2{fill:#a8a8a8;}.cls-16,.cls-17,.cls-3{fill:none;stroke-linecap:round;stroke-width:2px;}.cls-17,.cls-3{stroke:#fff;}.cls-16,.cls-3{stroke-linejoin:round;}.cls-4{fill:#fff;}.cls-5{opacity:0.08;}.cls-10,.cls-12,.cls-13,.cls-14,.cls-5,.cls-9{isolation:isolate;}.cls-12,.cls-13,.cls-14,.cls-6{fill:#d6006d;}.cls-7{fill:#24285b;}.cls-8{fill:#f4a28c;}.cls-9{opacity:0.45;}.cls-10{fill:#ce8172;opacity:0.31;}.cls-11{fill:#8d0e57;}.cls-12{opacity:0.46;}.cls-13{opacity:0.58;}.cls-14{opacity:0.73;}.cls-15{fill:#fbb03b;}.cls-16{stroke:#c1c1c1;}.cls-17{stroke-linejoin:bevel;}.cls-18{fill:#c1c1c1;}</style></defs><title>Ilustraciones Landing</title><rect class="cls-1" x="314.52" y="15.32" width="162.86" height="177.34"/><rect class="cls-2" x="339.57" y="37.39" width="28.33" height="28.33"/><polyline class="cls-3" points="347.81 51.84 351.85 57.93 359.2 46.99"/><rect class="cls-4" x="383.31" y="46.67" width="65.62" height="11.26"/><rect class="cls-2" x="339.57" y="88.89" width="28.33" height="28.33"/><polyline class="cls-3" points="347.81 103.35 351.85 109.44 359.2 98.5"/><rect class="cls-4" x="383.31" y="98.18" width="65.62" height="11.26"/><rect class="cls-2" x="339.57" y="137.01" width="28.33" height="28.33"/><polyline class="cls-3" points="347.81 151.44 351.85 157.56 359.2 146.6"/><rect class="cls-4" x="383.31" y="146.28" width="65.62" height="11.26"/><rect class="cls-1" x="314.52" y="291.08" width="162.86" height="110.71"/><path class="cls-5" d="M314.52,103.05S373,143.79,374.3,192.64H339.57Z"/><path class="cls-6" d="M220.81,106.41,167.63,148.7s-49.89,50-18.57,82.77S226,216.35,226,216.35Z"/><path class="cls-5" d="M220.81,106.41,167.63,148.7s-49.89,50-18.57,82.77S226,216.35,226,216.35Z"/><rect class="cls-7" x="169.35" y="119.55" width="6.13" height="39.69" transform="translate(-49.28 136.32) rotate(-38.16)"/><path class="cls-8" d="M167.63,148.7s8.28-9.78,15.71-6.56,5.47,18-7.49,18.27S167.63,148.7,167.63,148.7Z"/><ellipse class="cls-9" cx="197.22" cy="456.19" rx="28.48" ry="161.98" transform="translate(-259.79 651.5) rotate(-89.76)"/><path class="cls-6" d="M219.38,443.85s-3.32,6.28-9.4,5.94-8.57,5.27-3.3,7.57,20-2.62,20-2.62l1.1-11.06Z"/><path class="cls-8" d="M245.85,40.9s-1.14,12.63,1,21a6.43,6.43,0,0,0,7.76,4.61A14.09,14.09,0,0,0,265.7,55.94l3.82-11.07a11.37,11.37,0,0,0-5-12.16C257.31,27.65,246.16,33.18,245.85,40.9Z"/><polygon class="cls-8" points="268.74 46.93 275.17 87.97 252.28 89.9 256.81 59.26 268.74 46.93"/><path class="cls-8" d="M259.23,51.8s.1-4.89,3.78-4.51,3.56,7.44-1.44,8.09Z"/><path class="cls-8" d="M245.56,48.9l-3.48,4.87a2.13,2.13,0,0,0,.69,2.95h0a1.86,1.86,0,0,0,.56.24l4.84.93Z"/><path class="cls-10" d="M255.53,65.93A15,15,0,0,0,263,61.51s-.35,7.61-8.7,15Z"/><path class="cls-6" d="M278.54,88l-28.48,2.4S193.66,107,195.94,160s7.44,118,7.44,118L279.29,288S405.45,116.26,278.54,88Z"/><path class="cls-5" d="M290.56,122s-26.82,13.23-24.89,45.48-3.45,43.83-36.73,40.1-29.77,10.72-29.77,10.72l4.29,59.77L279.38,288l6.83-9.93S346.94,166.8,290.56,122Z"/><path class="cls-7" d="M203.38,278.09l-20.4,17a44.15,44.15,0,0,0,6.58,72.39l39.09,22,13-9.46-29.27-24.28a15.48,15.48,0,0,1-2-21.81,15.91,15.91,0,0,1,3.7-3.24l10.44-6.43a47.11,47.11,0,0,1,19.06-6.84c11.28-1.44,30-7.19,35.7-29.34Z"/><path class="cls-7" d="M245.56,24.65s-7.19,17.56,6.73,19,5.12,11,13.31,12.35,17.57-18.51,9.57-28.48S249.54,16.6,245.56,24.65Z"/><path class="cls-7" d="M279.23,288,227.78,443.68l-12.87-.13S232.47,339.67,230.57,296Z"/><path class="cls-11" d="M281.38,132.38a21,21,0,0,1,35.31-17.6c14.73,13.89,30.3,36.28,34.32,70.46,8.27,69.24-16.09,137.34-123.24,27.32l10.89-12.63s53.25,36.77,69,30.47C319.79,225.6,286.24,175.83,281.38,132.38Z"/><path class="cls-12" d="M281.38,132.38a21,21,0,0,1,35.31-17.6c14.73,13.89,30.3,36.28,34.32,70.46,8.27,69.24-16.09,137.34-123.24,27.32l10.89-12.63s53.25,36.77,69,30.47C319.79,225.6,286.24,175.83,281.38,132.38Z"/><path class="cls-13" d="M133.38,433.34s18.54-5,22.64-22.22c0,0-28.68-5.91-29.61,23.59Z"/><path class="cls-14" d="M131.15,431.5s13-20.42,1.71-39.59c0,0-21.89,13.77-12.31,39.59Z"/><path class="cls-6" d="M127.81,431.5s-6.76-21.64-27.41-25.74c0,0-3.93,14,13.28,25.74Z"/><polygon class="cls-7" points="141.22 431.07 137.4 456.73 113.73 456.73 110.34 431.07 141.22 431.07"/><rect class="cls-15" x="172.57" y="150.19" width="56.87" height="83.01" transform="translate(-22.47 26.74) rotate(-7.21)"/><path class="cls-8" d="M230.69,209.3s-22-10.72-16.68-18.66,24.77,9.29,24.77,9.29Z"/><circle class="cls-1" cx="65.67" cy="65.97" r="43.04"/><circle class="cls-4" cx="65.65" cy="65.97" r="30.43" transform="translate(-11.54 117.96) rotate(-79.1)"/><polyline class="cls-16" points="65.67 48.49 65.67 68.93 82.44 66.53"/><circle class="cls-1" cx="65.67" cy="182.52" r="43.04"/><circle class="cls-4" cx="65.71" cy="182.54" r="30.43" transform="translate(-125.01 218.15) rotate(-80.78)"/><polyline class="cls-16" points="65.67 165.04 65.67 185.48 82.44 183.05"/><circle class="cls-5" cx="336.19" cy="315.96" r="6.8"/><circle class="cls-5" cx="336.19" cy="345.21" r="6.8"/><circle class="cls-5" cx="336.19" cy="374.46" r="6.8"/><line class="cls-17" x1="361.32" y1="315.96" x2="441.66" y2="315.96"/><line class="cls-17" x1="361.32" y1="345.21" x2="441.66" y2="345.21"/><line class="cls-17" x1="361.32" y1="374.46" x2="441.66" y2="374.46"/><rect class="cls-1" x="27.32" y="284.07" width="76.66" height="60.66"/><rect class="cls-18" x="27.32" y="272.66" width="76.66" height="20.05"/><rect class="cls-1" x="38.56" y="262.24" width="6.54" height="16.62"/><rect class="cls-1" x="85.98" y="262.07" width="6.54" height="16.62"/><path class="cls-4" d="M47.38,323.86l4.41-.53a4.15,4.15,0,0,0,1.14,2.58,3.22,3.22,0,0,0,4.55-.1l.07-.08a4.22,4.22,0,0,0,1-2.89,3.94,3.94,0,0,0-.92-2.73,3.05,3.05,0,0,0-2.27-1,8.15,8.15,0,0,0-2.08.34l.5-3.72a3.9,3.9,0,0,0,2.81-.8,2.82,2.82,0,0,0,1-2.27A2.45,2.45,0,0,0,55,310a2.79,2.79,0,0,0-2,.81,3.93,3.93,0,0,0-1,2.37l-4.19-.72a9.35,9.35,0,0,1,1.31-3.45,6.25,6.25,0,0,1,2.47-2,8.38,8.38,0,0,1,3.56-.73,7.07,7.07,0,0,1,5.38,2.14,5.64,5.64,0,0,1,1.68,4c0,2.09-1.15,3.75-3.43,5a5.6,5.6,0,0,1,3.27,2,5.8,5.8,0,0,1,1.23,3.69,7.14,7.14,0,0,1-2.3,5.33,8.53,8.53,0,0,1-11,.35A7.28,7.28,0,0,1,47.38,323.86Z"/><path class="cls-4" d="M73.69,306.29a6.53,6.53,0,0,1,5.41,2.46q2.33,2.94,2.32,9.69t-2.34,9.71a6.48,6.48,0,0,1-5.39,2.43,6.77,6.77,0,0,1-5.59-2.67Q66,325.24,66,318.39t2.34-9.67A6.49,6.49,0,0,1,73.69,306.29Zm0,3.78a2.23,2.23,0,0,0-1.47.53,3.6,3.6,0,0,0-1,1.89,38.32,38.32,0,0,0,0,11.71,3.94,3.94,0,0,0,1.07,2.08,2.14,2.14,0,0,0,1.45.52,2.21,2.21,0,0,0,1.48-.53,3.52,3.52,0,0,0,1-1.89,38.19,38.19,0,0,0,0-11.69,4,4,0,0,0-1.06-2.09,2.22,2.22,0,0,0-1.47-.53Z"/></svg>